<svg xmlns="http://www.w3.org/2000/svg" viewBox="0 0 1083.06 122.7"><defs><style>.cls-1{fill:#fff;}</style></defs><title>Asset 1</title><g id="Layer_2" data-name="Layer 2"><g id="Layer_1-2" data-name="Layer 1"><path class="cls-1" d="M7.53,32.31a19.57,19.57,0,0,0,5,3.48,14.6,14.6,0,0,0,6.75,1.57,10.4,10.4,0,0,0,1.84-.17,5.58,5.58,0,0,0,1.7-.58A3.56,3.56,0,0,0,24,35.52a3,3,0,0,0,.48-1.77,3.41,3.41,0,0,0-1.81-2.93,24.52,24.52,0,0,0-5.28-2.32l-2.52-.82a29.19,29.19,0,0,1-4.26-1.77,17.68,17.68,0,0,1-3.85-2.62A12.32,12.32,0,0,1,4,19.67,10.61,10.61,0,0,1,3,14.79,14.58,14.58,0,0,1,4.12,9a13.5,13.5,0,0,1,3.37-4.7A15.59,15.59,0,0,1,13,1.12,23.27,23.27,0,0,1,20.55,0a27.7,27.7,0,0,1,6.07.61,27,27,0,0,1,4.77,1.5A19,19,0,0,1,34.87,4,14.27,14.27,0,0,1,37,5.86l-6.14,7.77a25.13,25.13,0,0,0-5-2.9,13.23,13.23,0,0,0-5.32-1.12,7.83,7.83,0,0,0-1.77.2,5.87,5.87,0,0,0-1.6.61,3.47,3.47,0,0,0-1.16,1.06,2.77,2.77,0,0,0-.44,1.6,3.07,3.07,0,0,0,.51,1.77,4.5,4.5,0,0,0,1.4,1.3,11,11,0,0,0,2.15,1l2.69.92,2.18.68q2.32.75,4.7,1.74a15.48,15.48,0,0,1,4.3,2.66,13.23,13.23,0,0,1,3.14,4.16,13.71,13.71,0,0,1,1.23,6.1,11.8,11.8,0,0,1-1.47,5.79,14.58,14.58,0,0,1-4,4.57,18.72,18.72,0,0,1-5.86,3,24,24,0,0,1-7.19,1.06A31.44,31.44,0,0,1,8,46,23.58,23.58,0,0,1,.23,41.11Z"/><path class="cls-1" d="M44.2,1.23H76.93V11.66H56.27v7h17V28.5h-17v7.77H78.36V46.7H44.2Z"/><path class="cls-1" d="M125.06,38.24a24.69,24.69,0,0,1-20.25,9.61,25.31,25.31,0,0,1-9.61-1.77A21.62,21.62,0,0,1,82.89,33.68a25.73,25.73,0,0,1-1.74-9.61,26.28,26.28,0,0,1,1.7-9.58A22.55,22.55,0,0,1,87.7,6.85a22.06,22.06,0,0,1,7.5-5A24.9,24.9,0,0,1,104.81,0a29.82,29.82,0,0,1,11,2,18.77,18.77,0,0,1,8.52,6.88l-8,8a15.29,15.29,0,0,0-4.57-4.16,11.72,11.72,0,0,0-6.07-1.57,13,13,0,0,0-5.11,1,10.57,10.57,0,0,0-3.78,2.66,11.88,11.88,0,0,0-2.35,4,14.57,14.57,0,0,0-.82,4.94,14.5,14.5,0,0,0,.85,5,11.93,11.93,0,0,0,2.42,4,11,11,0,0,0,3.78,2.66,12.36,12.36,0,0,0,4.94,1,13.08,13.08,0,0,0,6.44-1.4,17.18,17.18,0,0,0,4.87-4.4Z"/><path class="cls-1" d="M129.08,1.23h12.07V27.88A10.16,10.16,0,0,0,142.88,34q1.74,2.39,5.76,2.39T154.37,34a10.35,10.35,0,0,0,1.7-6.1V1.23h12.2V29a20.68,20.68,0,0,1-1.43,7.87,16.65,16.65,0,0,1-4.06,6,17.86,17.86,0,0,1-6.2,3.75,23,23,0,0,1-7.87,1.3,23.28,23.28,0,0,1-7.91-1.3,18,18,0,0,1-6.24-3.72,16.3,16.3,0,0,1-4.06-5.93A20.86,20.86,0,0,1,129.08,29Z"/><path class="cls-1" d="M176.18,1.23H195a21.63,21.63,0,0,1,6.65,1A14,14,0,0,1,206.72,5,12.58,12.58,0,0,1,210,9.68a16.82,16.82,0,0,1,1.16,6.48,14.93,14.93,0,0,1-2,7.81,15.17,15.17,0,0,1-5.25,5.28l9.75,17.45h-13L193,31.22h-5V46.7H176.18Zm17.66,20.52a5.33,5.33,0,0,0,3.89-1.47,5.23,5.23,0,0,0,1.5-3.92,5.68,5.68,0,0,0-1.43-4.09,5.3,5.3,0,0,0-4-1.5H188v11Z"/><path class="cls-1" d="M219,1.23h12.07V46.7H219Z"/><path class="cls-1" d="M250.49,11.79h-14V1.23h40V11.79H262.69V46.7h-12.2Z"/><path class="cls-1" d="M294.73,28.56,278.58,1.23h13.84l8.86,16.22L309.6,1.23H323L306.8,28.5V46.7H294.73Z"/><path class="cls-1" d="M364.68,41.72a23.67,23.67,0,0,1-5.49,4.3,15.41,15.41,0,0,1-7.74,1.77,17.85,17.85,0,0,1-6.17-1,12.67,12.67,0,0,1-4.5-2.73,11.46,11.46,0,0,1-2.73-4,12.91,12.91,0,0,1-.92-4.87,13.7,13.7,0,0,1,2.32-7.77,26.08,26.08,0,0,1,7.09-6.75l-.82-1a17,17,0,0,1-2.52-4.23,12.18,12.18,0,0,1-.89-4.64,10.19,10.19,0,0,1,.82-4,10.45,10.45,0,0,1,2.35-3.44A11.22,11.22,0,0,1,349.27,1a15.44,15.44,0,0,1,9.58-.24,11.79,11.79,0,0,1,3.27,1.7,10.48,10.48,0,0,1,2.32,2.39A19.85,19.85,0,0,1,366,7.57l-4.57,2.93a11.49,11.49,0,0,0-3.37-4.06,6.34,6.34,0,0,0-3.37-1A5.85,5.85,0,0,0,350.29,7a5.15,5.15,0,0,0-1.5,3.68,7.15,7.15,0,0,0,1,3.58,23.54,23.54,0,0,0,2.62,3.65l12.41,14.52,5.93-7.57,4.64,3.68L368.63,37l8.32,9.68H369ZM350.16,25a18.74,18.74,0,0,0-5,4.67,9.23,9.23,0,0,0-1.47,5.22,6.94,6.94,0,0,0,2,5.11,8.13,8.13,0,0,0,6,2A9.49,9.49,0,0,0,357,40.6a18.09,18.09,0,0,0,3.85-3.37Z"/><path class="cls-1" d="M435.23,38.24A24.69,24.69,0,0,1,415,47.86a25.31,25.31,0,0,1-9.61-1.77,21.62,21.62,0,0,1-12.31-12.41,25.73,25.73,0,0,1-1.74-9.61,26.28,26.28,0,0,1,1.7-9.58,22.55,22.55,0,0,1,4.84-7.64,22.06,22.06,0,0,1,7.5-5A24.9,24.9,0,0,1,415,0a29.82,29.82,0,0,1,11,2,18.77,18.77,0,0,1,8.52,6.88l-8,8a15.29,15.29,0,0,0-4.57-4.16,11.72,11.72,0,0,0-6.07-1.57,13,13,0,0,0-5.11,1A10.57,10.57,0,0,0,407,14.79a11.88,11.88,0,0,0-2.35,4,14.57,14.57,0,0,0-.82,4.94,14.5,14.5,0,0,0,.85,5,11.93,11.93,0,0,0,2.42,4,11,11,0,0,0,3.78,2.66,12.36,12.36,0,0,0,4.94,1,13.08,13.08,0,0,0,6.44-1.4,17.18,17.18,0,0,0,4.87-4.4Z"/><path class="cls-1" d="M439.66,1.23h18.82a21.63,21.63,0,0,1,6.65,1A14,14,0,0,1,470.21,5a12.58,12.58,0,0,1,3.27,4.67,16.82,16.82,0,0,1,1.16,6.48,14.93,14.93,0,0,1-2,7.81,15.17,15.17,0,0,1-5.25,5.28l9.75,17.45h-13l-7.7-15.47h-5V46.7H439.66Zm17.66,20.52a5.33,5.33,0,0,0,3.89-1.47,5.23,5.23,0,0,0,1.5-3.92,5.68,5.68,0,0,0-1.43-4.09,5.3,5.3,0,0,0-4-1.5h-5.8v11Z"/><path class="cls-1" d="M482.48,1.23h12.07V46.7H482.48Z"/><path class="cls-1" d="M506.27,32.31a19.57,19.57,0,0,0,5,3.48A14.6,14.6,0,0,0,518,37.36a10.4,10.4,0,0,0,1.84-.17,5.58,5.58,0,0,0,1.7-.58,3.56,3.56,0,0,0,1.23-1.09,3,3,0,0,0,.48-1.77,3.41,3.41,0,0,0-1.81-2.93,24.52,24.52,0,0,0-5.28-2.32l-2.52-.82a29.19,29.19,0,0,1-4.26-1.77,17.68,17.68,0,0,1-3.85-2.62,12.32,12.32,0,0,1-2.76-3.61,10.61,10.61,0,0,1-1.06-4.87A14.58,14.58,0,0,1,502.86,9a13.5,13.5,0,0,1,3.37-4.7,15.59,15.59,0,0,1,5.49-3.14A23.27,23.27,0,0,1,519.29,0a27.7,27.7,0,0,1,6.07.61,27,27,0,0,1,4.77,1.5A19,19,0,0,1,533.6,4a14.27,14.27,0,0,1,2.18,1.84l-6.14,7.77a25.13,25.13,0,0,0-5-2.9,13.23,13.23,0,0,0-5.32-1.12,7.83,7.83,0,0,0-1.77.2,5.87,5.87,0,0,0-1.6.61,3.47,3.47,0,0,0-1.16,1.06,2.77,2.77,0,0,0-.44,1.6,3.07,3.07,0,0,0,.51,1.77,4.5,4.5,0,0,0,1.4,1.3,11,11,0,0,0,2.15,1l2.69.92,2.18.68q2.32.75,4.7,1.74a15.48,15.48,0,0,1,4.3,2.66,13.23,13.23,0,0,1,3.14,4.16,13.71,13.71,0,0,1,1.23,6.1,11.8,11.8,0,0,1-1.47,5.79,14.58,14.58,0,0,1-4,4.57,18.72,18.72,0,0,1-5.86,3,24,24,0,0,1-7.19,1.06A31.44,31.44,0,0,1,506.78,46,23.58,23.58,0,0,1,499,41.11Z"/><path class="cls-1" d="M542.94,1.23H555V46.7H542.94Z"/><path class="cls-1" d="M566.74,32.31a19.57,19.57,0,0,0,5,3.48,14.6,14.6,0,0,0,6.75,1.57,10.4,10.4,0,0,0,1.84-.17,5.58,5.58,0,0,0,1.7-.58,3.56,3.56,0,0,0,1.23-1.09,3,3,0,0,0,.48-1.77,3.41,3.41,0,0,0-1.81-2.93,24.52,24.52,0,0,0-5.28-2.32l-2.52-.82a29.19,29.19,0,0,1-4.26-1.77A17.68,17.68,0,0,1,566,23.28a12.32,12.32,0,0,1-2.76-3.61,10.61,10.61,0,0,1-1.06-4.87A14.58,14.58,0,0,1,563.33,9a13.5,13.5,0,0,1,3.37-4.7,15.59,15.59,0,0,1,5.49-3.14A23.27,23.27,0,0,1,579.76,0a27.7,27.7,0,0,1,6.07.61,27,27,0,0,1,4.77,1.5A19,19,0,0,1,594.07,4a14.27,14.27,0,0,1,2.18,1.84l-6.14,7.77a25.13,25.13,0,0,0-5-2.9,13.23,13.23,0,0,0-5.32-1.12,7.83,7.83,0,0,0-1.77.2,5.87,5.87,0,0,0-1.6.61,3.47,3.47,0,0,0-1.16,1.06,2.77,2.77,0,0,0-.44,1.6,3.07,3.07,0,0,0,.51,1.77,4.5,4.5,0,0,0,1.4,1.3,11,11,0,0,0,2.15,1l2.69.92,2.18.68q2.32.75,4.7,1.74a15.48,15.48,0,0,1,4.3,2.66,13.23,13.23,0,0,1,3.14,4.16,13.71,13.71,0,0,1,1.23,6.1,11.8,11.8,0,0,1-1.47,5.79,14.58,14.58,0,0,1-4,4.57,18.72,18.72,0,0,1-5.86,3,24,24,0,0,1-7.19,1.06A31.44,31.44,0,0,1,567.25,46a23.58,23.58,0,0,1-7.81-4.87Z"/><path class="cls-1" d="M615.48,1.23H627l11,19.84L648.88,1.23h11.59l2.11,45.47h-12.2L649.29,20l-8,15.54H634.7L625.84,20,625,46.7H613.36Z"/><path class="cls-1" d="M683.1,1.23h13.84L713,46.7H700l-2.93-9.41h-15.2l-3,9.41H666.4ZM694.62,28.5l-5-16.7-5.25,16.7Z"/><path class="cls-1" d="M717.8,1.23h11l17.45,25.36V1.23h11.93V46.7H747.87L729.73,20.59V46.7H717.8Z"/><path class="cls-1" d="M779.63,1.23h13.84L809.56,46.7h-13l-2.93-9.41h-15.2l-3,9.41H762.93ZM791.15,28.5l-5-16.7-5.25,16.7Z"/><path class="cls-1" d="M834.78,20.72h18.68V41.24a25.1,25.1,0,0,1-9.37,5,37.85,37.85,0,0,1-10.6,1.53,27.79,27.79,0,0,1-9.92-1.67,20.64,20.64,0,0,1-7.46-4.77,20.4,20.4,0,0,1-4.67-7.53,29.11,29.11,0,0,1-1.6-10,25.82,25.82,0,0,1,1.74-9.58A21.85,21.85,0,0,1,823.91,1.77,25.05,25.05,0,0,1,833.49,0a29.64,29.64,0,0,1,10.6,1.88,18.59,18.59,0,0,1,8.28,6.24L844.53,16A21.06,21.06,0,0,0,840,12.54a11.27,11.27,0,0,0-5.62-1.36,12.41,12.41,0,0,0-5.18,1A11.09,11.09,0,0,0,825.41,15a12.13,12.13,0,0,0-2.35,4.09,15.14,15.14,0,0,0-.82,5,14.89,14.89,0,0,0,.89,5.28,11.91,11.91,0,0,0,2.45,4A10.72,10.72,0,0,0,829.4,36a13.23,13.23,0,0,0,5,.92,16.57,16.57,0,0,0,4.29-.54,12.18,12.18,0,0,0,4-1.91V30.06h-7.91Z"/><path class="cls-1" d="M860.89,1.23h32.72V11.66H873v7h17V28.5H873v7.77H895V46.7H860.89Z"/><path class="cls-1" d="M902.48,1.23H914l11,19.84L935.88,1.23h11.59l2.11,45.47h-12.2L936.29,20l-8,15.54H921.7L912.84,20,912,46.7H900.36Z"/><path class="cls-1" d="M956.81,1.23h32.72V11.66H968.88v7h17V28.5h-17v7.77H991V46.7H956.81Z"/><path class="cls-1" d="M997.23,1.23h11l17.45,25.36V1.23h11.93V46.7H1027.3l-18.13-26.11V46.7H997.23Z"/><path class="cls-1" d="M1057,11.79h-14V1.23h40V11.79h-13.84V46.7H1057Z"/><path class="cls-1" d="M4.64,110.5q1,1.09,2.15,2.22a15.07,15.07,0,0,0,2.69,2,14.77,14.77,0,0,0,3.34,1.43,14.06,14.06,0,0,0,4,.55,10.86,10.86,0,0,0,7-2,6.74,6.74,0,0,0,2.52-5.52,6.28,6.28,0,0,0-2.86-5.62,24.91,24.91,0,0,0-8.25-3A25.14,25.14,0,0,1,10,98.77,15.13,15.13,0,0,1,5.83,96a11.64,11.64,0,0,1-2.69-3.78,11.86,11.86,0,0,1-1-4.87,12.07,12.07,0,0,1,1-4.77,11,11,0,0,1,2.86-4,14.3,14.3,0,0,1,4.77-2.73,19.63,19.63,0,0,1,6.61-1,20.43,20.43,0,0,1,5.76.72,17.87,17.87,0,0,1,4.12,1.74A12.67,12.67,0,0,1,30,79.48q1,1.09,1.57,1.77l-4.36,4Q26.79,84.8,26,84a11.51,11.51,0,0,0-2.08-1.53A13.43,13.43,0,0,0,21,81.22a13.17,13.17,0,0,0-3.85-.51,10.86,10.86,0,0,0-3.75.58,8,8,0,0,0-2.59,1.5,5.72,5.72,0,0,0-1.5,2.08,6,6,0,0,0-.48,2.32,5.52,5.52,0,0,0,.72,2.9,6.78,6.78,0,0,0,2.08,2.11A13.31,13.31,0,0,0,15,93.76q2,.65,4.6,1.26a35.07,35.07,0,0,1,4.94,1.6,15.34,15.34,0,0,1,4.33,2.66,12.22,12.22,0,0,1,3,4.09,13.94,13.94,0,0,1,1.12,5.9,11.87,11.87,0,0,1-1.23,5.39,13.28,13.28,0,0,1-3.37,4.26,15.47,15.47,0,0,1-5.08,2.79,19.74,19.74,0,0,1-6.34,1,21.18,21.18,0,0,1-5.83-.75A23.72,23.72,0,0,1,6.37,120a20.41,20.41,0,0,1-3.75-2.56A18.22,18.22,0,0,1,0,114.73Z"/><path class="cls-1" d="M42.33,76.07H56.72a19.66,19.66,0,0,1,7.67,1.3,13.77,13.77,0,0,1,4.84,3.27,11.15,11.15,0,0,1,2.52,4.43,17,17,0,0,1,.72,4.77,14.57,14.57,0,0,1-1.16,6,12,12,0,0,1-3.2,4.33,13.77,13.77,0,0,1-4.87,2.62,20.52,20.52,0,0,1-6.17.89H48.81v17.86H42.33ZM57,98.09a9.15,9.15,0,0,0,6.51-2.15,7.79,7.79,0,0,0,2.28-6,8,8,0,0,0-2.35-6.1A9,9,0,0,0,57,81.66H48.81V98.09Z"/><path class="cls-1" d="M80.92,76.07h28.63v5.8H87.46V95.09H104.1V101H87.46v14.73h23.72v5.86H80.92Z"/><path class="cls-1" d="M158,113.57a15.9,15.9,0,0,1-2.32,2.79,21.13,21.13,0,0,1-3.82,3,23.69,23.69,0,0,1-5.18,2.35,20.86,20.86,0,0,1-6.48,1,23.23,23.23,0,0,1-9.2-1.77,21.13,21.13,0,0,1-7.16-4.94,22.61,22.61,0,0,1-4.67-7.5,27.24,27.24,0,0,1,0-18.78A23.72,23.72,0,0,1,123.8,82,21.6,21.6,0,0,1,131,76.86,22.56,22.56,0,0,1,140.3,75a21.91,21.91,0,0,1,6.48.89,21.69,21.69,0,0,1,5,2.22,19.38,19.38,0,0,1,3.68,2.9A21.25,21.25,0,0,1,158,84l-4.64,4a27.81,27.81,0,0,0-1.94-2.42,13.36,13.36,0,0,0-2.69-2.28,15.69,15.69,0,0,0-3.61-1.7,14.88,14.88,0,0,0-4.7-.68,15,15,0,0,0-11.76,5.32,17.12,17.12,0,0,0-3.17,5.73,21.85,21.85,0,0,0-1.09,7,21,21,0,0,0,1.12,6.92,17.22,17.22,0,0,0,3.17,5.62,14.53,14.53,0,0,0,5,3.75,15.33,15.33,0,0,0,6.54,1.36,15.88,15.88,0,0,0,5.28-.78,15.16,15.16,0,0,0,3.75-1.88,14.59,14.59,0,0,0,2.52-2.22q1-1.12,1.67-1.87Z"/><path class="cls-1" d="M165.52,76.07h6.54v45.47h-6.54Z"/><path class="cls-1" d="M195.72,76.07h6.68l17.79,45.47H212.9l-4.7-12.68H189.51l-4.7,12.68h-6.89Zm10.5,27.27-7.36-20-7.43,20Z"/><path class="cls-1" d="M226.12,76.07h6.54v39.68h23.66v5.8h-30.2Z"/><path class="cls-1" d="M277.79,110.5q1,1.09,2.15,2.22a15.07,15.07,0,0,0,2.69,2,14.77,14.77,0,0,0,3.34,1.43,14.06,14.06,0,0,0,4,.55,10.86,10.86,0,0,0,7-2,6.74,6.74,0,0,0,2.52-5.52,6.28,6.28,0,0,0-2.86-5.62,24.91,24.91,0,0,0-8.25-3,25.14,25.14,0,0,1-5.32-1.7A15.13,15.13,0,0,1,279,96a11.64,11.64,0,0,1-2.69-3.78,11.86,11.86,0,0,1-1-4.87,12.07,12.07,0,0,1,1-4.77,11,11,0,0,1,2.86-4,14.3,14.3,0,0,1,4.77-2.73,19.63,19.63,0,0,1,6.61-1,20.43,20.43,0,0,1,5.76.72,17.87,17.87,0,0,1,4.12,1.74,12.67,12.67,0,0,1,2.73,2.11q1,1.09,1.57,1.77l-4.36,4Q300,84.8,299.13,84a11.51,11.51,0,0,0-2.08-1.53,13.43,13.43,0,0,0-2.93-1.26,13.17,13.17,0,0,0-3.85-.51,10.86,10.86,0,0,0-3.75.58,8,8,0,0,0-2.59,1.5,5.72,5.72,0,0,0-1.5,2.08,6,6,0,0,0-.48,2.32,5.52,5.52,0,0,0,.72,2.9,6.78,6.78,0,0,0,2.08,2.11,13.31,13.31,0,0,0,3.37,1.57q2,.65,4.6,1.26a35.07,35.07,0,0,1,4.94,1.6A15.34,15.34,0,0,1,302,99.29a12.22,12.22,0,0,1,3,4.09,13.94,13.94,0,0,1,1.12,5.9,11.87,11.87,0,0,1-1.23,5.39,13.28,13.28,0,0,1-3.37,4.26,15.47,15.47,0,0,1-5.08,2.79,19.74,19.74,0,0,1-6.34,1,21.18,21.18,0,0,1-5.83-.75,23.72,23.72,0,0,1-4.77-1.91,20.41,20.41,0,0,1-3.75-2.56,18.22,18.22,0,0,1-2.62-2.76Z"/><path class="cls-1" d="M315.15,76.07h6.54v26.59a26.9,26.9,0,0,0,.55,5.62,11.51,11.51,0,0,0,1.87,4.4,8.58,8.58,0,0,0,3.55,2.83,13.84,13.84,0,0,0,5.62,1,13.66,13.66,0,0,0,5.56-1,8.59,8.59,0,0,0,3.55-2.83,11.52,11.52,0,0,0,1.87-4.4,27,27,0,0,0,.55-5.62V76.07h6.54v28.16a23.5,23.5,0,0,1-1.09,7.26,16.21,16.21,0,0,1-3.31,5.86,15.35,15.35,0,0,1-5.62,3.92,23.31,23.31,0,0,1-16.09,0,15.68,15.68,0,0,1-5.66-3.92,15.93,15.93,0,0,1-3.34-5.86,23.47,23.47,0,0,1-1.09-7.26Z"/><path class="cls-1" d="M362.94,76.07h6.27l13.84,23.66,13.84-23.66H403l2.11,45.47h-6.41l-1.5-34.9-12.82,21.47h-3.27l-12.61-21.2L367,121.54h-6.14Z"/><path class="cls-1" d="M416.59,76.07h6.27L436.7,99.73l13.84-23.66h6.14l2.11,45.47h-6.41l-1.5-34.9-12.82,21.47h-3.27l-12.61-21.2-1.57,34.63h-6.14Z"/><path class="cls-1" d="M468.67,76.07h6.54v45.47h-6.54Z"/><path class="cls-1" d="M498.33,81.8H482V76.07H521.1V81.8H504.87v39.74h-6.54Z"/></g></g></svg>