<svg xmlns="http://www.w3.org/2000/svg" viewBox="0 0 764.39 235.85"><defs><style>.cls-1{fill:#e56363;}.cls-2{fill:#d54845;}.cls-3{fill:#004fa3;}.cls-4,.cls-6{fill:#4d90cd;}.cls-5{fill:#fff;}.cls-6{fill-rule:evenodd;}</style></defs><title>Asset 2</title><g id="Layer_2" data-name="Layer 2"><g id="Layer_1-2" data-name="Layer 1"><path class="cls-1" d="M194.23,101.06a16.25,16.25,0,0,0,4.13,2.89,12.13,12.13,0,0,0,5.61,1.3,8.66,8.66,0,0,0,1.53-.14,4.63,4.63,0,0,0,1.42-.48,3,3,0,0,0,1-.91,2.52,2.52,0,0,0,.4-1.47,2.83,2.83,0,0,0-1.5-2.44,20.34,20.34,0,0,0-4.39-1.93l-2.09-.68a24.11,24.11,0,0,1-3.54-1.47,14.65,14.65,0,0,1-3.2-2.18,10.22,10.22,0,0,1-2.29-3,8.82,8.82,0,0,1-.88-4,12.11,12.11,0,0,1,1-4.84,11.22,11.22,0,0,1,2.8-3.91,13,13,0,0,1,4.56-2.6,19.32,19.32,0,0,1,6.29-.93,23,23,0,0,1,5,.51A22.39,22.39,0,0,1,214,76a15.75,15.75,0,0,1,2.89,1.59,11.85,11.85,0,0,1,1.81,1.53l-5.1,6.46a20.89,20.89,0,0,0-4.13-2.41,11,11,0,0,0-4.42-.93,6.52,6.52,0,0,0-1.47.17,4.87,4.87,0,0,0-1.33.51,2.86,2.86,0,0,0-1,.88,2.3,2.3,0,0,0-.37,1.33,2.55,2.55,0,0,0,.42,1.47,3.74,3.74,0,0,0,1.16,1.08,9.19,9.19,0,0,0,1.78.82l2.24.76,1.81.57q1.92.62,3.91,1.44a12.89,12.89,0,0,1,3.57,2.21,11,11,0,0,1,2.6,3.45,11.39,11.39,0,0,1,1,5.07,9.81,9.81,0,0,1-1.22,4.81,12.12,12.12,0,0,1-3.28,3.79,15.55,15.55,0,0,1-4.87,2.46,19.89,19.89,0,0,1-6,.88,26.11,26.11,0,0,1-9.49-1.5,19.58,19.58,0,0,1-6.48-4Z"/><path class="cls-1" d="M224.69,75.24h27.18v8.66H234.72v5.83h14.1v8.15h-14.1v6.46h18.35V113H224.69Z"/><path class="cls-1" d="M291.85,106A20.51,20.51,0,0,1,275,114a21,21,0,0,1-8-1.47,18,18,0,0,1-10.22-10.31,21.38,21.38,0,0,1-1.44-8,21.82,21.82,0,0,1,1.42-8,18.74,18.74,0,0,1,4-6.34A18.32,18.32,0,0,1,267,75.72a20.69,20.69,0,0,1,8-1.5,24.78,24.78,0,0,1,9.12,1.64,15.6,15.6,0,0,1,7.08,5.72l-6.62,6.68a12.7,12.7,0,0,0-3.79-3.45,9.74,9.74,0,0,0-5-1.3,10.79,10.79,0,0,0-4.25.79,8.78,8.78,0,0,0-3.14,2.21,9.87,9.87,0,0,0-2,3.31,12.75,12.75,0,0,0,0,8.3,9.91,9.91,0,0,0,2,3.34,9.11,9.11,0,0,0,3.14,2.21,10.27,10.27,0,0,0,4.11.79,10.86,10.86,0,0,0,5.35-1.16,14.27,14.27,0,0,0,4-3.65Z"/><path class="cls-1" d="M295.19,75.24h10V97.38a8.44,8.44,0,0,0,1.44,5.1q1.44,2,4.79,2t4.76-2a8.59,8.59,0,0,0,1.42-5.07V75.24h10.14v23a17.17,17.17,0,0,1-1.19,6.54,13.84,13.84,0,0,1-3.37,5A14.84,14.84,0,0,1,318,112.9,19.1,19.1,0,0,1,311.5,114a19.34,19.34,0,0,1-6.57-1.08,15,15,0,0,1-5.18-3.09,13.55,13.55,0,0,1-3.37-4.93,17.33,17.33,0,0,1-1.19-6.6Z"/><path class="cls-1" d="M334.32,75.24h15.63a18,18,0,0,1,5.52.79,11.66,11.66,0,0,1,4.22,2.35,10.47,10.47,0,0,1,2.72,3.88,14,14,0,0,1,1,5.38,12.4,12.4,0,0,1-1.64,6.48,12.61,12.61,0,0,1-4.36,4.39l8.1,14.5H354.71l-6.4-12.85h-4.19V113h-9.8Zm14.67,17a4.42,4.42,0,0,0,3.23-1.22,4.35,4.35,0,0,0,1.25-3.26,4.72,4.72,0,0,0-1.19-3.4,4.4,4.4,0,0,0-3.34-1.25h-4.81v9.12Z"/><path class="cls-1" d="M369.88,75.24h10V113h-10Z"/><path class="cls-1" d="M396,84H384.43V75.24h33.24V84h-11.5v29H396Z"/><path class="cls-1" d="M432.79,97.95,419.37,75.24h11.5l7.36,13.48,6.91-13.48h11.16L442.82,97.89V113h-10Z"/><path class="cls-1" d="M490.89,108.88a19.67,19.67,0,0,1-4.56,3.57,12.8,12.8,0,0,1-6.43,1.47,14.82,14.82,0,0,1-5.12-.82,10.51,10.51,0,0,1-3.74-2.27,9.53,9.53,0,0,1-2.27-3.34,10.72,10.72,0,0,1-.76-4A11.38,11.38,0,0,1,469.94,97a21.66,21.66,0,0,1,5.89-5.61l-.68-.85a14.13,14.13,0,0,1-2.1-3.51,10.12,10.12,0,0,1-.74-3.85,8.46,8.46,0,0,1,.68-3.31A8.67,8.67,0,0,1,475,77a9.3,9.3,0,0,1,3.14-2,11.53,11.53,0,0,1,4.25-.74,11.41,11.41,0,0,1,3.71.54,9.76,9.76,0,0,1,2.72,1.42,8.71,8.71,0,0,1,1.93,2A16.57,16.57,0,0,1,492,80.51l-3.79,2.44a9.53,9.53,0,0,0-2.8-3.37,5.26,5.26,0,0,0-2.8-.82,4.86,4.86,0,0,0-3.68,1.3,4.28,4.28,0,0,0-1.25,3.06,5.94,5.94,0,0,0,.82,3,19.57,19.57,0,0,0,2.18,3L491,101.18l4.93-6.29,3.85,3.06-5.61,7,6.91,8h-6.57ZM478.83,94.95a15.58,15.58,0,0,0-4.16,3.88,7.67,7.67,0,0,0-1.22,4.33,5.76,5.76,0,0,0,1.7,4.25,6.75,6.75,0,0,0,5,1.7,7.88,7.88,0,0,0,4.39-1.16,15,15,0,0,0,3.2-2.8Z"/><path class="cls-2" d="M226.28,162.23a20.51,20.51,0,0,1-16.82,8,21,21,0,0,1-8-1.47,18,18,0,0,1-10.22-10.31,21.38,21.38,0,0,1-1.44-8,21.82,21.82,0,0,1,1.42-8,18.74,18.74,0,0,1,4-6.34,18.32,18.32,0,0,1,6.23-4.19,20.69,20.69,0,0,1,8-1.5,24.78,24.78,0,0,1,9.12,1.64,15.6,15.6,0,0,1,7.08,5.72L219,144.51a12.7,12.7,0,0,0-3.79-3.45,9.74,9.74,0,0,0-5-1.3,10.79,10.79,0,0,0-4.25.79,8.78,8.78,0,0,0-3.14,2.21,9.87,9.87,0,0,0-2,3.31,12.75,12.75,0,0,0,0,8.3,9.91,9.91,0,0,0,2,3.34,9.11,9.11,0,0,0,3.14,2.21,10.27,10.27,0,0,0,4.11.79,10.86,10.86,0,0,0,5.35-1.16,14.27,14.27,0,0,0,4-3.65Z"/><path class="cls-2" d="M230,131.48h15.63a18,18,0,0,1,5.52.79,11.66,11.66,0,0,1,4.22,2.35,10.47,10.47,0,0,1,2.72,3.88,14,14,0,0,1,1,5.38,12.4,12.4,0,0,1-1.64,6.48,12.61,12.61,0,0,1-4.36,4.39l8.1,14.5H250.34l-6.4-12.85h-4.19v12.85H230Zm14.67,17a4.42,4.42,0,0,0,3.23-1.22,4.35,4.35,0,0,0,1.25-3.26,4.72,4.72,0,0,0-1.19-3.4,4.4,4.4,0,0,0-3.34-1.25h-4.81v9.12Z"/><path class="cls-2" d="M265.52,131.48h10v37.77h-10Z"/><path class="cls-2" d="M285.28,157.31a16.25,16.25,0,0,0,4.13,2.89,12.13,12.13,0,0,0,5.61,1.3,8.66,8.66,0,0,0,1.53-.14,4.63,4.63,0,0,0,1.42-.48,3,3,0,0,0,1-.91,2.52,2.52,0,0,0,.4-1.47,2.83,2.83,0,0,0-1.5-2.44,20.34,20.34,0,0,0-4.39-1.93l-2.09-.68a24.11,24.11,0,0,1-3.54-1.47,14.65,14.65,0,0,1-3.2-2.18,10.22,10.22,0,0,1-2.29-3,8.82,8.82,0,0,1-.88-4,12.11,12.11,0,0,1,1-4.84,11.22,11.22,0,0,1,2.8-3.91,13,13,0,0,1,4.56-2.6,19.32,19.32,0,0,1,6.29-.93,23,23,0,0,1,5,.51,22.39,22.39,0,0,1,4,1.25,15.75,15.75,0,0,1,2.89,1.59,11.85,11.85,0,0,1,1.81,1.53l-5.1,6.46a20.89,20.89,0,0,0-4.13-2.41,11,11,0,0,0-4.42-.93,6.52,6.52,0,0,0-1.47.17,4.87,4.87,0,0,0-1.33.51,2.86,2.86,0,0,0-1,.88,2.3,2.3,0,0,0-.37,1.33,2.55,2.55,0,0,0,.42,1.47,3.74,3.74,0,0,0,1.16,1.08,9.19,9.19,0,0,0,1.78.82l2.24.76,1.81.57q1.92.62,3.91,1.44a12.89,12.89,0,0,1,3.57,2.21,11,11,0,0,1,2.6,3.45,11.39,11.39,0,0,1,1,5.07,9.81,9.81,0,0,1-1.22,4.81,12.12,12.12,0,0,1-3.28,3.79,15.55,15.55,0,0,1-4.87,2.46,19.89,19.89,0,0,1-6,.88,26.11,26.11,0,0,1-9.49-1.5,19.58,19.58,0,0,1-6.48-4Z"/><path class="cls-2" d="M315.75,131.48h10v37.77h-10Z"/><path class="cls-2" d="M335.51,157.31a16.25,16.25,0,0,0,4.13,2.89,12.13,12.13,0,0,0,5.61,1.3,8.66,8.66,0,0,0,1.53-.14,4.63,4.63,0,0,0,1.42-.48,3,3,0,0,0,1-.91,2.52,2.52,0,0,0,.4-1.47,2.83,2.83,0,0,0-1.5-2.44,20.34,20.34,0,0,0-4.39-1.93l-2.09-.68a24.11,24.11,0,0,1-3.54-1.47,14.65,14.65,0,0,1-3.2-2.18,10.22,10.22,0,0,1-2.29-3,8.82,8.82,0,0,1-.88-4,12.11,12.11,0,0,1,1-4.84,11.22,11.22,0,0,1,2.8-3.91,13,13,0,0,1,4.56-2.6,19.32,19.32,0,0,1,6.29-.93,23,23,0,0,1,5,.51,22.39,22.39,0,0,1,4,1.25,15.75,15.75,0,0,1,2.89,1.59,11.85,11.85,0,0,1,1.81,1.53l-5.1,6.46a20.89,20.89,0,0,0-4.13-2.41,11,11,0,0,0-4.42-.93,6.52,6.52,0,0,0-1.47.17,4.87,4.87,0,0,0-1.33.51,2.86,2.86,0,0,0-1,.88,2.3,2.3,0,0,0-.37,1.33,2.55,2.55,0,0,0,.42,1.47,3.74,3.74,0,0,0,1.16,1.08,9.19,9.19,0,0,0,1.78.82l2.24.76,1.81.57q1.92.62,3.91,1.44a12.89,12.89,0,0,1,3.57,2.21,11,11,0,0,1,2.6,3.45,11.39,11.39,0,0,1,1,5.07,9.81,9.81,0,0,1-1.22,4.81,12.12,12.12,0,0,1-3.28,3.79,15.55,15.55,0,0,1-4.87,2.46,19.89,19.89,0,0,1-6,.88,26.11,26.11,0,0,1-9.49-1.5,19.58,19.58,0,0,1-6.48-4Z"/><path class="cls-2" d="M376,131.48h9.57L394.74,148l9-16.48h9.63l1.76,37.77H405l-.91-22.14L397.46,160H392l-7.36-12.91-.74,22.14h-9.63Z"/><path class="cls-2" d="M432.17,131.48h11.5L457,169.25H446.21l-2.44-7.81H431.15l-2.49,7.81H418.3Zm9.57,22.65-4.19-13.87-4.36,13.87Z"/><path class="cls-2" d="M461,131.48h9.12l14.5,21.06V131.48h9.91v37.77H486L470.9,147.57v21.69H461Z"/><path class="cls-2" d="M512.35,131.48h11.5l13.36,37.77H526.4L524,161.44H511.33l-2.49,7.81H498.48Zm9.57,22.65-4.19-13.87-4.36,13.87Z"/><path class="cls-2" d="M558.16,147.68h15.52v17a20.85,20.85,0,0,1-7.79,4.16,31.43,31.43,0,0,1-8.81,1.27,23.06,23.06,0,0,1-8.24-1.39,17.14,17.14,0,0,1-6.2-4,17,17,0,0,1-3.88-6.26,24.18,24.18,0,0,1-1.33-8.27,21.45,21.45,0,0,1,1.44-8,18.15,18.15,0,0,1,10.25-10.39,20.82,20.82,0,0,1,8-1.47,24.63,24.63,0,0,1,8.81,1.56,15.45,15.45,0,0,1,6.88,5.18l-6.51,6.57a17.48,17.48,0,0,0-3.77-2.89,9.36,9.36,0,0,0-4.67-1.13,10.3,10.3,0,0,0-4.3.85,9.22,9.22,0,0,0-3.14,2.29,10.07,10.07,0,0,0-2,3.4,12.58,12.58,0,0,0-.68,4.16,12.36,12.36,0,0,0,.74,4.39,9.91,9.91,0,0,0,2,3.34,8.91,8.91,0,0,0,3.17,2.15,11,11,0,0,0,4.19.76,13.75,13.75,0,0,0,3.57-.45,10.09,10.09,0,0,0,3.28-1.59v-3.62h-6.57Z"/><path class="cls-2" d="M579.85,131.48H607v8.66H589.87V146H604v8.15h-14.1v6.46h18.35v8.66H579.85Z"/><path class="cls-2" d="M614.39,131.48H624L633.13,148l9-16.48h9.63l1.76,37.77H643.38l-.91-22.14L635.85,160h-5.49L623,147.11l-.74,22.14h-9.63Z"/><path class="cls-2" d="M659.52,131.48H686.7v8.66H669.54V146h14.1v8.15h-14.1v6.46h18.35v8.66H659.52Z"/><path class="cls-2" d="M693.1,131.48h9.12l14.5,21.06V131.48h9.91v37.77h-8.55L703,147.57v21.69H693.1Z"/><path class="cls-2" d="M742.76,140.26H731.15v-8.78h33.24v8.78H752.9v29H742.76Z"/><path class="cls-3" d="M193.83,216.32q.79.91,1.78,1.84a12.54,12.54,0,0,0,2.24,1.67,12.26,12.26,0,0,0,2.78,1.19,11.69,11.69,0,0,0,3.34.45,9,9,0,0,0,5.83-1.7,5.6,5.6,0,0,0,2.1-4.59,5.21,5.21,0,0,0-2.38-4.67,20.68,20.68,0,0,0-6.85-2.52,20.91,20.91,0,0,1-4.42-1.42,12.58,12.58,0,0,1-3.43-2.27,9.67,9.67,0,0,1-2.24-3.14,9.86,9.86,0,0,1-.79-4,10,10,0,0,1,.79-4,9.16,9.16,0,0,1,2.38-3.28,11.87,11.87,0,0,1,4-2.26,16.3,16.3,0,0,1,5.49-.85,17,17,0,0,1,4.78.59,14.87,14.87,0,0,1,3.43,1.44,10.53,10.53,0,0,1,2.26,1.76q.85.91,1.3,1.47l-3.62,3.34q-.34-.4-1-1a9.59,9.59,0,0,0-1.73-1.27,11.13,11.13,0,0,0-2.43-1,11,11,0,0,0-3.2-.42,9,9,0,0,0-3.11.48,6.59,6.59,0,0,0-2.15,1.25,4.74,4.74,0,0,0-1.25,1.73,5,5,0,0,0-.4,1.93,4.6,4.6,0,0,0,.59,2.41,5.64,5.64,0,0,0,1.73,1.76,11.07,11.07,0,0,0,2.8,1.3q1.67.54,3.82,1a29,29,0,0,1,4.11,1.33,12.72,12.72,0,0,1,3.6,2.21,10.13,10.13,0,0,1,2.52,3.4,11.58,11.58,0,0,1,.93,4.9,9.87,9.87,0,0,1-1,4.47,11,11,0,0,1-2.8,3.54,12.83,12.83,0,0,1-4.22,2.32,16.39,16.39,0,0,1-5.27.82,17.6,17.6,0,0,1-4.84-.62,19.7,19.7,0,0,1-4-1.59,17,17,0,0,1-3.11-2.12,15.14,15.14,0,0,1-2.18-2.29Z"/><path class="cls-3" d="M225.15,187.73h11.95a16.32,16.32,0,0,1,6.37,1.08,11.44,11.44,0,0,1,4,2.72,9.25,9.25,0,0,1,2.1,3.68,14.16,14.16,0,0,1,.59,4,12.1,12.1,0,0,1-1,5,10,10,0,0,1-2.66,3.6,11.44,11.44,0,0,1-4,2.18,17.05,17.05,0,0,1-5.12.74h-6.85V225.5h-5.38ZM237.32,206a7.6,7.6,0,0,0,5.41-1.78,6.47,6.47,0,0,0,1.9-5,6.63,6.63,0,0,0-2-5.07,7.49,7.49,0,0,0-5.35-1.84h-6.8V206Z"/><path class="cls-3" d="M257.2,187.73H281v4.81H262.63v11h13.82v4.87H262.63v12.23h19.71v4.87H257.2Z"/><path class="cls-3" d="M321.18,218.87a13.19,13.19,0,0,1-1.93,2.32,17.54,17.54,0,0,1-3.17,2.46,19.67,19.67,0,0,1-4.3,2,17.32,17.32,0,0,1-5.38.79,19.3,19.3,0,0,1-7.64-1.47,17.55,17.55,0,0,1-5.95-4.11,18.77,18.77,0,0,1-3.88-6.23,22.62,22.62,0,0,1,0-15.6,19.69,19.69,0,0,1,3.88-6.34,18,18,0,0,1,6-4.28,18.74,18.74,0,0,1,7.73-1.56,18.2,18.2,0,0,1,5.38.74,18,18,0,0,1,4.16,1.84,16.12,16.12,0,0,1,3.06,2.41,17.66,17.66,0,0,1,2.07,2.49l-3.85,3.28a23,23,0,0,0-1.61-2,11.15,11.15,0,0,0-2.24-1.9,13,13,0,0,0-3-1.42,12.36,12.36,0,0,0-3.91-.57,12.42,12.42,0,0,0-9.77,4.42,14.2,14.2,0,0,0-2.63,4.76,18.13,18.13,0,0,0-.91,5.78,17.39,17.39,0,0,0,.93,5.75,14.28,14.28,0,0,0,2.63,4.67,12.07,12.07,0,0,0,4.13,3.11,12.72,12.72,0,0,0,5.44,1.13,13.19,13.19,0,0,0,4.39-.65,12.58,12.58,0,0,0,3.11-1.56,12.11,12.11,0,0,0,2.1-1.84l1.39-1.56Z"/><path class="cls-3" d="M327.47,187.73h5.44V225.5h-5.44Z"/><path class="cls-3" d="M352.55,187.73h5.55l14.78,37.77h-6.06L362.91,215H347.4l-3.91,10.53h-5.72Zm8.72,22.65-6.12-16.59L349,210.38Z"/><path class="cls-3" d="M377.81,187.73h5.44v33h19.65v4.81H377.81Z"/><path class="cls-3" d="M420.73,216.32q.79.91,1.78,1.84a12.54,12.54,0,0,0,2.24,1.67,12.26,12.26,0,0,0,2.78,1.19,11.69,11.69,0,0,0,3.34.45,9,9,0,0,0,5.83-1.7,5.6,5.6,0,0,0,2.1-4.59,5.21,5.21,0,0,0-2.38-4.67,20.68,20.68,0,0,0-6.85-2.52,20.91,20.91,0,0,1-4.42-1.42,12.58,12.58,0,0,1-3.43-2.27,9.67,9.67,0,0,1-2.24-3.14,9.86,9.86,0,0,1-.79-4,10,10,0,0,1,.79-4,9.16,9.16,0,0,1,2.38-3.28,11.87,11.87,0,0,1,4-2.26,16.3,16.3,0,0,1,5.49-.85,17,17,0,0,1,4.78.59,14.87,14.87,0,0,1,3.43,1.44,10.53,10.53,0,0,1,2.26,1.76q.85.91,1.3,1.47l-3.62,3.34q-.34-.4-1-1a9.59,9.59,0,0,0-1.73-1.27,11.13,11.13,0,0,0-2.43-1,11,11,0,0,0-3.2-.42,9,9,0,0,0-3.11.48,6.59,6.59,0,0,0-2.15,1.25,4.74,4.74,0,0,0-1.25,1.73,5,5,0,0,0-.4,1.93,4.6,4.6,0,0,0,.59,2.41,5.64,5.64,0,0,0,1.73,1.76,11.07,11.07,0,0,0,2.8,1.3q1.67.54,3.82,1a29,29,0,0,1,4.11,1.33,12.72,12.72,0,0,1,3.6,2.21,10.13,10.13,0,0,1,2.52,3.4,11.58,11.58,0,0,1,.93,4.9,9.87,9.87,0,0,1-1,4.47,11,11,0,0,1-2.8,3.54,12.83,12.83,0,0,1-4.22,2.32,16.39,16.39,0,0,1-5.27.82,17.6,17.6,0,0,1-4.84-.62,19.7,19.7,0,0,1-4-1.59,17,17,0,0,1-3.11-2.12,15.14,15.14,0,0,1-2.18-2.29Z"/><path class="cls-3" d="M451.76,187.73h5.44v22.08a22.44,22.44,0,0,0,.45,4.67,9.56,9.56,0,0,0,1.56,3.65,7.13,7.13,0,0,0,2.94,2.35,11.51,11.51,0,0,0,4.67.82,11.35,11.35,0,0,0,4.62-.82,7.13,7.13,0,0,0,2.94-2.35,9.57,9.57,0,0,0,1.56-3.65,22.44,22.44,0,0,0,.45-4.67V187.73h5.44v23.39a19.51,19.51,0,0,1-.91,6,13.44,13.44,0,0,1-2.75,4.87,12.75,12.75,0,0,1-4.67,3.26,19.36,19.36,0,0,1-13.36,0,13,13,0,0,1-4.7-3.26,13.22,13.22,0,0,1-2.77-4.87,19.48,19.48,0,0,1-.91-6Z"/><path class="cls-3" d="M491.45,187.73h5.21l11.5,19.65,11.5-19.65h5.1l1.75,37.77h-5.32l-1.25-29-10.65,17.84h-2.72L496.1,196.73l-1.3,28.77h-5.1Z"/><path class="cls-3" d="M536,187.73h5.21l11.5,19.65,11.5-19.65h5.1l1.75,37.77h-5.32l-1.25-29-10.65,17.84h-2.72l-10.48-17.61-1.3,28.77h-5.1Z"/><path class="cls-3" d="M579.28,187.73h5.44V225.5h-5.44Z"/><path class="cls-3" d="M603.91,192.48H590.38v-4.76h32.45v4.76H609.35v33h-5.44Z"/><path class="cls-4" d="M196.81,5.7h3L207.73,26h-3.26l-2.1-5.66H194L191.94,26h-3.07Zm4.69,12.17L198.21,9l-3.32,8.91Z"/><path class="cls-4" d="M227.44,22.43a7,7,0,0,1-1,1.25A9.29,9.29,0,0,1,224.7,25a10.53,10.53,0,0,1-2.31,1,9.26,9.26,0,0,1-2.89.43,10.38,10.38,0,0,1-4.11-.79,9.39,9.39,0,0,1-3.19-2.2,10.08,10.08,0,0,1-2.08-3.35,11.59,11.59,0,0,1-.75-4.21,11.54,11.54,0,0,1,.75-4.17,10.58,10.58,0,0,1,2.08-3.41A9.61,9.61,0,0,1,215.41,6a10.06,10.06,0,0,1,4.15-.84,9.8,9.8,0,0,1,2.89.39,9.68,9.68,0,0,1,2.24,1,8.74,8.74,0,0,1,1.64,1.29,9.53,9.53,0,0,1,1.11,1.34L225.37,11a12.31,12.31,0,0,0-.87-1.08,5.94,5.94,0,0,0-1.2-1,7,7,0,0,0-1.61-.76,6.67,6.67,0,0,0-2.1-.3,6.67,6.67,0,0,0-5.25,2.37,7.64,7.64,0,0,0-1.41,2.56,9.75,9.75,0,0,0-.49,3.1,9.36,9.36,0,0,0,.5,3.09,7.71,7.71,0,0,0,1.41,2.51,6.48,6.48,0,0,0,2.22,1.67,6.84,6.84,0,0,0,2.92.61,7.06,7.06,0,0,0,2.36-.35,6.77,6.77,0,0,0,1.67-.84,6.54,6.54,0,0,0,1.13-1l.75-.84Z"/><path class="cls-4" d="M230.67,5.7h2.92V26h-2.92Z"/><path class="cls-4" d="M243.41,5.7h12.78V8.28h-9.86v5.9h7.42V16.8h-7.42v6.57h10.59V26H243.41Z"/><path class="cls-4" d="M260.27,5.7h2.92V17.56a12,12,0,0,0,.25,2.51,5.1,5.1,0,0,0,.84,2,3.8,3.8,0,0,0,1.58,1.26,6.17,6.17,0,0,0,2.51.44,6.09,6.09,0,0,0,2.48-.44A3.83,3.83,0,0,0,272.42,22a5.18,5.18,0,0,0,.84-2,12.13,12.13,0,0,0,.24-2.51V5.7h2.92V18.26a10.48,10.48,0,0,1-.49,3.24,7.23,7.23,0,0,1-1.48,2.62,6.84,6.84,0,0,1-2.51,1.75,10.41,10.41,0,0,1-7.18,0,7,7,0,0,1-2.53-1.75,7.12,7.12,0,0,1-1.49-2.62,10.48,10.48,0,0,1-.49-3.24Z"/><path class="cls-4" d="M280.74,5.7h6.48a9,9,0,0,1,3.29.53,6.36,6.36,0,0,1,2.17,1.37,5.12,5.12,0,0,1,1.22,1.9,6.71,6.71,0,0,1-.53,5.6,5.45,5.45,0,0,1-2.83,2.22L295.28,26H292l-4.35-8.3h-4.08V26h-2.83Zm6.72,9.52a3.94,3.94,0,0,0,2.87-.94,3.38,3.38,0,0,0,1-2.52,3.31,3.31,0,0,0-1-2.6,4.13,4.13,0,0,0-2.86-.93h-3.83v7Z"/><path class="cls-4" d="M307.45,26.51a9.92,9.92,0,0,1-4.08-.84,10.35,10.35,0,0,1-3.29-2.28A10.5,10.5,0,0,1,297.9,20a11,11,0,0,1-.79-4.17,10.86,10.86,0,0,1,.79-4.15,10.72,10.72,0,0,1,2.17-3.38A10.17,10.17,0,0,1,303.36,6a10.42,10.42,0,0,1,8.18,0,10.36,10.36,0,0,1,3.3,2.28A10.55,10.55,0,0,1,317,11.67a10.86,10.86,0,0,1,.79,4.15A11,11,0,0,1,317,20a10.5,10.5,0,0,1-2.19,3.39,10.34,10.34,0,0,1-3.3,2.28A10,10,0,0,1,307.45,26.51Zm0-2.74a6.92,6.92,0,0,0,5.34-2.37,7.84,7.84,0,0,0,1.48-2.54,9,9,0,0,0,.52-3.06,9.11,9.11,0,0,0-.52-3.09,7.85,7.85,0,0,0-1.48-2.54,6.85,6.85,0,0,0-2.31-1.72,7.17,7.17,0,0,0-3-.62,7.06,7.06,0,0,0-3,.62,6.86,6.86,0,0,0-2.3,1.72,7.81,7.81,0,0,0-1.48,2.54,9.11,9.11,0,0,0-.52,3.09,9,9,0,0,0,.52,3.06,7.8,7.8,0,0,0,1.48,2.54,7,7,0,0,0,2.3,1.73A6.9,6.9,0,0,0,307.45,23.77Z"/><path class="cls-4" d="M321.47,5.7h6.42a8.78,8.78,0,0,1,3.42.58,6.14,6.14,0,0,1,2.16,1.46,5,5,0,0,1,1.13,2,7.6,7.6,0,0,1,.32,2.13,6.51,6.51,0,0,1-.52,2.68A5.39,5.39,0,0,1,333,16.45a6.18,6.18,0,0,1-2.18,1.17A9.17,9.17,0,0,1,328,18h-3.68v8h-2.89ZM328,15.52a4.08,4.08,0,0,0,2.9-1,3.48,3.48,0,0,0,1-2.66,3.57,3.57,0,0,0-1-2.72,4,4,0,0,0-2.87-1h-3.65v7.33Z"/><path class="cls-4" d="M338.54,5.7h12.78V8.28h-9.86v5.9h7.42V16.8h-7.42v6.57H352V26H338.54Z"/><path class="cls-4" d="M372,23.77a10.5,10.5,0,0,1-2.45,1.92,6.88,6.88,0,0,1-3.45.79,8,8,0,0,1-2.75-.44,5.66,5.66,0,0,1-2-1.22A5.11,5.11,0,0,1,360.13,23a5.74,5.74,0,0,1-.41-2.17,6.11,6.11,0,0,1,1-3.47,11.62,11.62,0,0,1,3.16-3l-.37-.46A7.63,7.63,0,0,1,362.42,12,5.42,5.42,0,0,1,362,10a4.56,4.56,0,0,1,.36-1.78,4.69,4.69,0,0,1,1-1.54,5,5,0,0,1,1.69-1.06,6.2,6.2,0,0,1,2.28-.4,6.12,6.12,0,0,1,2,.29,5.24,5.24,0,0,1,1.46.76,4.65,4.65,0,0,1,1,1.06,8.81,8.81,0,0,1,.72,1.23l-2,1.31A5.11,5.11,0,0,0,369.07,8a2.82,2.82,0,0,0-1.51-.44,2.62,2.62,0,0,0-2,.7,2.3,2.3,0,0,0-.67,1.64,3.18,3.18,0,0,0,.44,1.6,10.64,10.64,0,0,0,1.17,1.63l5.54,6.48,2.65-3.38,2.07,1.64-3,3.77L377.48,26H374Zm-6.48-7.48a8.35,8.35,0,0,0-2.24,2.08,4.1,4.1,0,0,0-.65,2.33,3.09,3.09,0,0,0,.91,2.28,3.63,3.63,0,0,0,2.68.91,4.23,4.23,0,0,0,2.36-.62,8.07,8.07,0,0,0,1.72-1.51Z"/><path class="cls-4" d="M196.81,36.36h3l7.94,20.29h-3.26L202.37,51H194l-2.1,5.66h-3.07Zm4.69,12.17-3.29-8.91-3.32,8.91Z"/><path class="cls-4" d="M210.5,51.73q.43.49,1,1a6.75,6.75,0,0,0,1.2.9,6.62,6.62,0,0,0,1.49.64,6.24,6.24,0,0,0,1.79.24,4.85,4.85,0,0,0,3.13-.91,3,3,0,0,0,1.13-2.46,2.8,2.8,0,0,0-1.28-2.51,11.13,11.13,0,0,0-3.68-1.35,11.24,11.24,0,0,1-2.37-.76A6.76,6.76,0,0,1,211,45.28a5.16,5.16,0,0,1-1.2-1.69,5.29,5.29,0,0,1-.43-2.17,5.38,5.38,0,0,1,.43-2.13,4.89,4.89,0,0,1,1.28-1.77,6.38,6.38,0,0,1,2.13-1.22,8.78,8.78,0,0,1,3-.46,9.13,9.13,0,0,1,2.57.32,8,8,0,0,1,1.84.78,5.65,5.65,0,0,1,1.22.94q.46.49.7.79l-1.95,1.79c-.12-.14-.3-.33-.55-.56a5.07,5.07,0,0,0-.93-.68,5.94,5.94,0,0,0-1.31-.56,5.88,5.88,0,0,0-1.72-.23,4.83,4.83,0,0,0-1.67.26,3.53,3.53,0,0,0-1.16.67,2.53,2.53,0,0,0-.67.93,2.67,2.67,0,0,0-.21,1,2.47,2.47,0,0,0,.32,1.29,3,3,0,0,0,.93.94,5.93,5.93,0,0,0,1.51.7c.6.19,1.28.38,2.05.56a15.59,15.59,0,0,1,2.21.71,6.81,6.81,0,0,1,1.93,1.19,5.44,5.44,0,0,1,1.35,1.82,6.22,6.22,0,0,1,.5,2.63,5.31,5.31,0,0,1-.55,2.4,6,6,0,0,1-1.51,1.9,6.9,6.9,0,0,1-2.27,1.25,8.78,8.78,0,0,1-2.83.44,9.48,9.48,0,0,1-2.6-.34,10.57,10.57,0,0,1-2.13-.85,9.14,9.14,0,0,1-1.67-1.14,8.17,8.17,0,0,1-1.17-1.23Z"/><path class="cls-4" d="M227.17,36.36h2.92V56.66h-2.92Z"/><path class="cls-4" d="M240.49,36.36h3l7.94,20.29h-3.26L246.06,51h-8.34l-2.1,5.66h-3.07Zm4.69,12.17-3.29-8.91-3.32,8.91Z"/><path class="cls-4" d="M252.6,46.83h8.92v2.62H252.6Z"/><path class="cls-4" d="M265.89,36.36h6.42a8.74,8.74,0,0,1,3.42.58,6.13,6.13,0,0,1,2.16,1.46,5,5,0,0,1,1.12,2,7.58,7.58,0,0,1,.32,2.13,6.52,6.52,0,0,1-.51,2.68,5.4,5.4,0,0,1-1.43,1.93,6.14,6.14,0,0,1-2.18,1.17,9.16,9.16,0,0,1-2.75.4h-3.68v8h-2.89Zm6.54,9.83a4.08,4.08,0,0,0,2.91-1,3.48,3.48,0,0,0,1-2.66,3.55,3.55,0,0,0-1-2.72,4,4,0,0,0-2.87-1h-3.65v7.33Z"/><path class="cls-4" d="M286.46,36.36h3l7.94,20.29h-3.26L292,51h-8.34l-2.1,5.66h-3.07Zm4.68,12.17-3.29-8.91-3.32,8.91Z"/><path class="cls-4" d="M317.1,53.1a7.24,7.24,0,0,1-1,1.25,9.52,9.52,0,0,1-1.7,1.32,10.59,10.59,0,0,1-2.31,1,9.32,9.32,0,0,1-2.89.43,10.35,10.35,0,0,1-4.1-.79,9.45,9.45,0,0,1-3.2-2.21,10.07,10.07,0,0,1-2.08-3.35,12.16,12.16,0,0,1,0-8.38A10.57,10.57,0,0,1,301.85,39a9.65,9.65,0,0,1,3.21-2.3,10.07,10.07,0,0,1,4.15-.84,9.76,9.76,0,0,1,2.89.4,9.65,9.65,0,0,1,2.24,1A8.59,8.59,0,0,1,316,38.55a9.56,9.56,0,0,1,1.11,1.34L315,41.66a12.26,12.26,0,0,0-.87-1.08,5.93,5.93,0,0,0-1.2-1,6.93,6.93,0,0,0-1.61-.76,6.63,6.63,0,0,0-2.1-.3A6.67,6.67,0,0,0,304,40.87a7.65,7.65,0,0,0-1.42,2.55,9.76,9.76,0,0,0-.49,3.1,9.35,9.35,0,0,0,.5,3.09A7.7,7.7,0,0,0,304,52.12a6.5,6.5,0,0,0,2.22,1.67,6.83,6.83,0,0,0,2.92.61,7.12,7.12,0,0,0,2.36-.35,6.86,6.86,0,0,0,1.67-.84,6.57,6.57,0,0,0,1.12-1l.75-.84Z"/><path class="cls-4" d="M320.32,36.36h2.92V56.66h-2.92Z"/><path class="cls-4" d="M327.71,36.36h12.75V39h-9.83v6.21h7.48v2.59h-7.48v8.88h-2.92Z"/><path class="cls-4" d="M343.65,36.36h2.92V56.66h-2.92Z"/><path class="cls-4" d="M368.26,53.1a7.24,7.24,0,0,1-1,1.25,9.52,9.52,0,0,1-1.7,1.32,10.59,10.59,0,0,1-2.31,1,9.32,9.32,0,0,1-2.89.43,10.35,10.35,0,0,1-4.1-.79,9.45,9.45,0,0,1-3.2-2.21,10.07,10.07,0,0,1-2.08-3.35,12.16,12.16,0,0,1,0-8.38A10.57,10.57,0,0,1,353,39a9.65,9.65,0,0,1,3.21-2.3,10.07,10.07,0,0,1,4.15-.84,9.76,9.76,0,0,1,2.89.4,9.65,9.65,0,0,1,2.24,1,8.59,8.59,0,0,1,1.64,1.29,9.56,9.56,0,0,1,1.11,1.34l-2.07,1.77a12.26,12.26,0,0,0-.87-1.08,5.93,5.93,0,0,0-1.2-1,6.93,6.93,0,0,0-1.61-.76,6.63,6.63,0,0,0-2.1-.3,6.67,6.67,0,0,0-5.25,2.37,7.65,7.65,0,0,0-1.42,2.55,9.76,9.76,0,0,0-.49,3.1,9.35,9.35,0,0,0,.5,3.09,7.7,7.7,0,0,0,1.42,2.51,6.5,6.5,0,0,0,2.22,1.67,6.83,6.83,0,0,0,2.92.61,7.12,7.12,0,0,0,2.36-.35,6.86,6.86,0,0,0,1.67-.84,6.57,6.57,0,0,0,1.12-1l.75-.84Z"/><path class="cls-4" d="M376.84,36.36h6.42a8.76,8.76,0,0,1,3.42.58,6.14,6.14,0,0,1,2.16,1.46,5,5,0,0,1,1.13,2,7.58,7.58,0,0,1,.32,2.13,6.51,6.51,0,0,1-.52,2.68,5.39,5.39,0,0,1-1.43,1.93,6.14,6.14,0,0,1-2.18,1.17,9.17,9.17,0,0,1-2.75.4h-3.68v8h-2.89Zm6.54,9.83a4.07,4.07,0,0,0,2.9-1,3.48,3.48,0,0,0,1-2.66,3.56,3.56,0,0,0-1-2.72,4,4,0,0,0-2.87-1h-3.65v7.33Z"/><path class="cls-4" d="M393.91,36.36h6.48a8.92,8.92,0,0,1,3.29.53,6.32,6.32,0,0,1,2.17,1.37,5.1,5.1,0,0,1,1.22,1.9,6.4,6.4,0,0,1,.38,2.16,6.47,6.47,0,0,1-.91,3.44A5.47,5.47,0,0,1,403.7,48l4.75,8.67h-3.29l-4.35-8.3h-4.08v8.3h-2.83Zm6.72,9.52a3.94,3.94,0,0,0,2.87-.94,3.38,3.38,0,0,0,1-2.53,3.31,3.31,0,0,0-1-2.6,4.12,4.12,0,0,0-2.86-.93h-3.83v7Z"/><path class="cls-4" d="M411.71,36.36h12.78V39h-9.86v5.9H422v2.62h-7.42V54h10.59v2.62H411.71Z"/><path class="cls-4" d="M429.13,51.73q.43.49,1,1a6.75,6.75,0,0,0,1.2.9,6.6,6.6,0,0,0,1.49.64,6.26,6.26,0,0,0,1.79.24,4.85,4.85,0,0,0,3.13-.91,3,3,0,0,0,1.12-2.46,2.8,2.8,0,0,0-1.28-2.51,11.13,11.13,0,0,0-3.68-1.35,11.22,11.22,0,0,1-2.37-.76,6.68,6.68,0,0,1-1.84-1.22,5.21,5.21,0,0,1-1.2-1.69,5.29,5.29,0,0,1-.43-2.17,5.38,5.38,0,0,1,.43-2.13,5,5,0,0,1,1.28-1.77,6.38,6.38,0,0,1,2.13-1.22,8.79,8.79,0,0,1,3-.46,9.14,9.14,0,0,1,2.57.32,8,8,0,0,1,1.84.78,5.61,5.61,0,0,1,1.22.94q.46.49.7.79l-1.95,1.79c-.12-.14-.3-.33-.55-.56a5.25,5.25,0,0,0-.93-.68,6,6,0,0,0-1.31-.56,5.87,5.87,0,0,0-1.72-.23,4.85,4.85,0,0,0-1.67.26,3.55,3.55,0,0,0-1.16.67,2.56,2.56,0,0,0-.67.93,2.72,2.72,0,0,0-.21,1,2.47,2.47,0,0,0,.32,1.29,3,3,0,0,0,.93.94,5.91,5.91,0,0,0,1.51.7c.6.19,1.28.38,2.05.56a15.45,15.45,0,0,1,2.2.71,6.86,6.86,0,0,1,1.93,1.19,5.48,5.48,0,0,1,1.35,1.82,6.22,6.22,0,0,1,.5,2.63,5.28,5.28,0,0,1-.55,2.4,5.92,5.92,0,0,1-1.51,1.9,6.88,6.88,0,0,1-2.27,1.25,8.78,8.78,0,0,1-2.83.44,9.45,9.45,0,0,1-2.6-.34,10.57,10.57,0,0,1-2.13-.85,9.05,9.05,0,0,1-1.67-1.14,8,8,0,0,1-1.17-1.23Z"/><path class="cls-4" d="M445.81,36.36h12.78V39h-9.86v5.9h7.42v2.62h-7.42V54h10.59v2.62H445.81Z"/><path class="cls-4" d="M462.81,36.36h3l11.07,15.85V36.36h2.86V56.66h-2.92l-11.1-15.88V56.66h-2.86Z"/><path class="cls-4" d="M489.86,38.92h-7.27V36.36H500v2.55h-7.24V56.66h-2.92Z"/><path class="cls-4" d="M76.57,225a2.72,2.72,0,1,1-2.69,2.72A2.73,2.73,0,0,1,76.57,225Z"/><path class="cls-4" d="M27.17,220.43v1.76H23.76V227h3v1.76h-3v5.17h3.41v1.76H21.74V220.43Z"/><path class="cls-4" d="M30.76,220.43v11.16c0,2,.59,2.36,1.41,2.36,1.39,0,1.51-.89,1.53-2.14V220.43h2v10.8c0,2,0,4.62-3.49,4.62-3.21,0-3.49-2.18-3.49-4.93v-10.5Z"/><path class="cls-4" d="M38.17,220.43h2.42c1.47,0,3.78.08,3.78,3.9,0,1.43-.42,3.61-2.1,3.92l2.81,7.41H43l-2.75-7.45h0v7.45h-2Zm4.06,4.34c0-1.45-.18-2.66-1.72-2.62h-.32v5C41.7,227.27,42.23,226.3,42.23,224.77Z"/><path class="cls-4" d="M54.1,228c0,2.75,0,7.81-4,7.81s-4-5.07-4-7.81,0-7.81,4-7.81S54.1,225.29,54.1,228Zm-5.77,0c0,3.23.22,5.91,1.82,5.91S52,231.27,52,228s-.22-5.92-1.82-5.92S48.33,224.81,48.33,228Z"/><path class="cls-4" d="M56.18,235.65V220.43H58.6c1.74,0,4,.16,4,4.08,0,3.09-1.21,4.52-4.36,4.4v6.74Zm2-13.51v5c1.74.12,2.22-.83,2.22-2.52,0-1.37-.4-2.52-1.94-2.52Z"/><path class="cls-4" d="M69.44,220.43v1.76H66V227h3v1.76H66v5.17h3.41v1.76H64V220.43Z"/><path class="cls-4" d="M78.61,77.39C102.53,61.52,126.54,50.71,148,45.19V0H28.15V120.21A274.15,274.15,0,0,1,78.61,77.39"/><path class="cls-3" d="M80.69,81.05c-20.11,13.33-37.92,26.16-52.53,41.29v33.83H148V47.69c-20.88,6.72-44,17.94-67.3,33.36"/><path class="cls-5" d="M92.5,68.74l-.37-34.12c0-.33.47-15.15,3.6-17.79a3.19,3.19,0,0,1,3.44-.66c5,2.64,5.79,12.52,7.67,20.92,1.09,5.44,1.88,14,1.88,14h1.56V16h-1.56v6.26c0,2-.47,3-1.25,2.63-1.1-.5-1.72-2.47-3-5.27a11.42,11.42,0,0,0-3.6-4.61c-1.41-1-3.91-.82-5.64-.16-7.36,2.64-11,25-12.68,43.65C82.09,64.28,82,69.18,82,75.18c3.49-2.25,7-4.42,10.46-6.45"/><path class="cls-5" d="M110.12,96.55l-.15,5.1c-.16,4.28-1.72,31.63-8,36.4-2,1.48-3.44,1.15-4.23.66-4.7-2.64-4.7-15.65-4.7-18.45L92.55,73.6q-5.21,3.14-10.45,6.57c0,.13,0,.26,0,.4.16,9.39.94,16.47,1.72,24,1.25,14.66,4.22,31.13,12.52,35.58a5.72,5.72,0,0,0,6.1-.17c8.45-5.76,9.23-39.86,9.07-43.48h-1.41"/><path class="cls-5" d="M46.12,102.45c3-23.62,7-56,7-56l4.46,46.25c2.52-2,5.08-4,7.7-6L57.55,13.37l-1.88-.5L43.78,104.6c.78-.72,1.55-1.44,2.34-2.15"/><path class="cls-5" d="M43.15,126.53c.14-1.3,1.05-8.72,2.28-18.55-.78.69-1.59,1.37-2.36,2.06l-1.65,12.7A74.46,74.46,0,0,1,39.86,132c-.78,2.14-1.56,5.1-6.73,5.43V139H49.72V137.4c-3.13-.49-7.51-1.48-6.57-10.87"/><path class="cls-5" d="M65.83,91.53q-4,2.93-7.75,5.94l3.85,39.94h-3.6V139H75.07V137.4H70.69L65.83,91.53"/><path class="cls-5" d="M134.42,52.66q-4.11,1.62-8.3,3.46V137.4H120V139h20.5V137.4h-6.1V52.66"/><path class="cls-5" d="M126.12,52.32c2.8-1.1,5.55-2.1,8.3-3V17.66h6.1V16H120v1.65h6.1V52.32"/><path class="cls-5" d="M80.23,77.69c36.16-24,72.87-34.42,100.28-36.89-27.47-.47-65.3,8.61-102.13,33S13.94,131.2,0,159.14c16-26.34,44.07-57.47,80.23-81.45"/><path class="cls-3" d="M81,81.13c36.16-24,72.14-37.87,99.55-40.33C153,40.33,115.95,52.85,79.12,77.27S13.94,131.2,0,159.14c16-26.34,44.8-54,81-78"/><path class="cls-3" d="M18,168.86l4.16,19.36H19.57l-.72-3.78H15l-.72,3.78H11.76L16,168.86Zm-.05,10.79-1-7h-.05l-1.54,9.84h3.08Z"/><path class="cls-3" d="M26.42,188.22H23.85V168.86h2.57Z"/><path class="cls-3" d="M29.55,168.86h3.08c1.87,0,4.8.1,4.8,5,0,1.82-.54,4.6-2.67,5l3.57,9.43H35.66l-3.49-9.48h-.05v9.48H29.55Zm5.16,5.52c0-1.85-.23-3.39-2.18-3.34h-.41v6.4C34,177.57,34.71,176.33,34.71,174.38Z"/><path class="cls-3" d="M40.23,188.22V168.86h3.08c2.21,0,5,.21,5,5.19,0,3.93-1.54,5.75-5.55,5.6v8.58ZM42.8,171v6.42c2.21.15,2.83-1.05,2.83-3.21,0-1.75-.51-3.21-2.47-3.21Z"/><path class="cls-3" d="M59.78,178.54c0,3.49-.05,9.94-5,9.94s-5-6.45-5-9.94.05-9.94,5-9.94S59.78,175,59.78,178.54Zm-7.34,0c0,4.11.28,7.53,2.31,7.53s2.31-3.42,2.31-7.53S56.77,171,54.74,171,52.43,174.43,52.43,178.54Z"/><path class="cls-3" d="M62.42,168.86H65.5c1.87,0,4.8.1,4.8,5,0,1.82-.54,4.6-2.67,5l3.57,9.43H68.53L65,178.75H65v9.48H62.42Zm5.16,5.52c0-1.85-.23-3.39-2.18-3.34H65v6.4C66.91,177.57,67.58,176.33,67.58,174.38Z"/><path class="cls-3" d="M79.49,168.86v2.23h-2.9v17.13H74V171.09H71v-2.23Z"/><path class="cls-3" d="M86.92,171.84a3.53,3.53,0,0,0-2.18-.82,2.32,2.32,0,0,0-2.29,2.49,3.14,3.14,0,0,0,.72,2.11l2,2.13c1.75,1.77,2.75,3.06,2.75,5.68s-1.69,5.06-4.55,5.06a4.49,4.49,0,0,1-2.83-.92V185A4.19,4.19,0,0,0,83,186c1.59,0,2.26-1.26,2.26-2.7,0-3.85-5.42-4.62-5.42-9.71,0-2.72,1.44-5,4.34-5a5.2,5.2,0,0,1,2.72.64Z"/><path class="cls-3" d="M102.81,171.5a3.71,3.71,0,0,0-1.64-.49c-3.6,0-3.62,5.24-3.62,7.65,0,2.57.21,7.4,3.72,7.4a3.19,3.19,0,0,0,1.54-.39v2.26a3.63,3.63,0,0,1-2.05.54c-5.24,0-5.93-5.57-5.93-9.63,0-3.88.49-10.25,5.75-10.25a4,4,0,0,1,2.23.57Z"/><path class="cls-3" d="M114.36,178.54c0,3.49-.05,9.94-5,9.94s-5-6.45-5-9.94.05-9.94,5-9.94S114.36,175,114.36,178.54Zm-7.34,0c0,4.11.28,7.53,2.31,7.53s2.31-3.42,2.31-7.53-.28-7.52-2.31-7.52S107,174.43,107,178.54Z"/><path class="cls-3" d="M119.58,168.86v14.2c0,2.49.74,3,1.8,3,1.77,0,1.93-1.13,2-2.72V168.86h2.57V182.6c0,2.54,0,5.88-4.44,5.88-4.08,0-4.44-2.77-4.44-6.27V168.86Z"/><path class="cls-3" d="M131.18,174.61l.39,6.5v7.11H129V168.86h2.47L136,183.58l.05-.05-.62-7.76v-6.91H138v19.36H135.6l-4.52-14.92-.05.05Z"/><path class="cls-3" d="M148.62,171.5A3.71,3.71,0,0,0,147,171c-3.6,0-3.62,5.24-3.62,7.65,0,2.57.21,7.4,3.72,7.4a3.19,3.19,0,0,0,1.54-.39v2.26a3.63,3.63,0,0,1-2.05.54c-5.24,0-5.93-5.57-5.93-9.63,0-3.88.49-10.25,5.75-10.25a4,4,0,0,1,2.23.57Z"/><path class="cls-3" d="M153.16,188.22h-2.57V168.86h2.57Z"/><path class="cls-3" d="M158.86,168.86V186h4.31v2.23h-6.88V168.86Z"/><path class="cls-3" d="M31.71,213.9H29.14V194.54h2.57Z"/><path class="cls-3" d="M37,200.29l.39,6.5v7.11H34.84V194.54h2.47l4.52,14.72.05-.05-.62-7.76v-6.91h2.57V213.9H41.44L36.92,199l-.05.05Z"/><path class="cls-3" d="M53.79,194.54v2.23h-2.9V213.9H48.32V196.77h-3v-2.23Z"/><path class="cls-3" d="M62.16,194.54v2.23H57.82v6.09H61.7v2.23H57.82v6.57h4.34v2.23H55.26V194.54Z"/><path class="cls-3" d="M64.17,194.54h3.08c1.87,0,4.8.1,4.8,5,0,1.82-.54,4.6-2.67,5l3.57,9.43H70.28l-3.49-9.48h-.05v9.48H64.17Zm5.16,5.52c0-1.85-.23-3.39-2.18-3.34h-.41v6.4C68.66,203.24,69.33,202,69.33,200.06Z"/><path class="cls-3" d="M77,200.29l.39,6.5v7.11H74.85V194.54h2.47l4.52,14.72.05-.05-.62-7.76v-6.91h2.57V213.9H81.45L76.93,199l-.05.05Z"/><path class="cls-3" d="M91.74,194.54l4.16,19.36H93.31l-.72-3.78H88.74L88,213.9H85.5l4.21-19.36Zm-.05,10.79-1-7h-.05l-1.54,9.84h3.08Z"/><path class="cls-3" d="M103.5,194.54v2.23h-2.9V213.9H98V196.77H95v-2.23Z"/><path class="cls-3" d="M107.54,213.9H105V194.54h2.57Z"/><path class="cls-3" d="M120.25,204.22c0,3.49-.05,9.94-5,9.94s-5-6.45-5-9.94.05-9.94,5-9.94S120.25,200.73,120.25,204.22Zm-7.34,0c0,4.11.28,7.53,2.31,7.53s2.31-3.42,2.31-7.53-.28-7.52-2.31-7.52S112.9,200.11,112.9,204.22Z"/><path class="cls-3" d="M125.07,200.29l.39,6.5v7.11h-2.57V194.54h2.47l4.52,14.72.05-.05-.62-7.76v-6.91h2.57V213.9h-2.39L125,199l-.05.05Z"/><path class="cls-3" d="M139.79,194.54l4.16,19.36h-2.59l-.72-3.78h-3.85l-.72,3.78h-2.52l4.21-19.36Zm-.05,10.79-1-7h-.05l-1.54,9.84h3.08Z"/><path class="cls-3" d="M148.21,194.54v17.13h4.31v2.23h-6.88V194.54Z"/><path class="cls-6" d="M95.47,222.79a2.93,2.93,0,0,0-1.63-.55,1.86,1.86,0,0,0-1.81,2,2.94,2.94,0,0,0,.54,1.63L94,227.5a5.17,5.17,0,0,1,2.17,4.35,3.53,3.53,0,0,1-3.44,3.8,2.88,2.88,0,0,1-2.17-.72v-2a2.52,2.52,0,0,0,1.81.9c1.27,0,1.81-1.08,1.81-2.17,0-2.89-4.16-3.62-4.16-7.42,0-2.17,1.08-3.8,3.26-3.8a3.92,3.92,0,0,1,2.17.36v2"/><rect class="cls-4" x="136.91" y="220.57" width="2" height="14.91"/><rect class="cls-4" x="108.59" y="227.69" width="4.45" height="2"/><rect class="cls-4" x="97.44" y="220.57" width="2" height="14.91"/><rect class="cls-4" x="148.05" y="220.57" width="2" height="14.91"/><path class="cls-6" d="M135.54,222.58a4.68,4.68,0,0,0-1.27-.36c-2.91,0-2.91,4-2.91,6,0,1.82.18,5.63,2.91,5.63a3.36,3.36,0,0,0,1.27-.36v1.82a2.69,2.69,0,0,1-1.64.37c-4,0-4.54-4.18-4.54-7.45,0-2.91.36-7.82,4.36-7.82a3.26,3.26,0,0,1,1.82.37v1.82"/><path class="cls-6" d="M158.27,222.58a4.65,4.65,0,0,0-1.27-.36c-2.91,0-2.91,4-2.91,6,0,1.82.18,5.63,2.91,5.63a3.36,3.36,0,0,0,1.27-.36v1.82a2.69,2.69,0,0,1-1.64.37c-4,0-4.54-4.18-4.54-7.45,0-2.91.36-7.82,4.36-7.82a3.26,3.26,0,0,1,1.82.37v1.82"/><polyline class="cls-6" points="146.68 220.39 146.68 222.21 143.22 222.21 143.22 226.94 146.31 226.94 146.31 228.58 143.22 228.58 143.22 235.49 141.22 235.49 141.22 220.39 146.68 220.39"/><path class="cls-6" d="M117.65,226.94a2.31,2.31,0,0,1-1.09.18V222h.36a1.51,1.51,0,0,1,.73.18c.73.36.91,1.27.91,2.54C118.56,225.85,118.38,226.57,117.65,226.94Zm3.09-2.73c0-3.27-1.82-3.64-3.09-3.82h-3.09v15.09h2v-6.32c4.21,0,4.18-3.51,4.18-5"/><path class="cls-6" d="M125.74,231.12H123.2l1.27-7.64Zm-.36-10.55h-1.64l-3.27,14.91h2l.55-2.91h2.91l.55,2.91h2l-3.09-14.91"/><path class="cls-6" d="M105.6,231.12h-2.55l1.27-7.64Zm-.36-10.55H103.6l-3.27,14.91h2l.55-2.91h2.91l.55,2.91h2l-3.09-14.91"/><path class="cls-6" d="M86.94,231.12H84.39l1.28-7.64Zm-.36-10.55H84.94l-3.27,14.91h2l.55-2.91h2.91l.55,2.91h2l-3.09-14.91"/></g></g></svg>