<svg xmlns="http://www.w3.org/2000/svg" viewBox="0 0 147.3 192.46"><defs><style>.cls-1,.cls-4{fill:#4d90cd;}.cls-2{fill:#004fa3;}.cls-3{fill:#fff;}.cls-4{fill-rule:evenodd;}</style></defs><title>Asset 1</title><g id="Layer_2" data-name="Layer 2"><g id="Layer_1-2" data-name="Layer 1"><path class="cls-1" d="M62.48,183.62a2.22,2.22,0,1,1-2.2,2.22A2.23,2.23,0,0,1,62.48,183.62Z"/><path class="cls-1" d="M22.17,179.87v1.43H19.39v3.9h2.49v1.43H19.39v4.22h2.78v1.43H17.74V179.87Z"/><path class="cls-1" d="M25.1,179.87V189c0,1.6.48,1.93,1.15,1.93,1.14,0,1.24-.72,1.25-1.75v-9.29h1.65v8.81c0,1.63,0,3.77-2.85,3.77-2.62,0-2.85-1.78-2.85-4v-8.57Z"/><path class="cls-1" d="M31.15,179.87h2c1.2,0,3.08.07,3.08,3.18,0,1.17-.35,2.95-1.71,3.2l2.29,6H35.07l-2.24-6.08h0v6.08H31.15Zm3.31,3.54c0-1.19-.15-2.17-1.4-2.14H32.8v4.1C34,185.45,34.46,184.66,34.46,183.41Z"/><path class="cls-1" d="M44.14,186.08c0,2.24,0,6.37-3.23,6.37s-3.23-4.13-3.23-6.37,0-6.37,3.23-6.37S44.14,183.84,44.14,186.08Zm-4.71,0c0,2.64.18,4.83,1.48,4.83s1.48-2.19,1.48-4.83-.18-4.83-1.48-4.83S39.43,183.44,39.43,186.08Z"/><path class="cls-1" d="M45.84,192.29V179.87h2c1.42,0,3.23.13,3.23,3.33,0,2.52-1,3.69-3.56,3.59v5.5Zm1.65-11v4.12c1.42.1,1.81-.67,1.81-2.06,0-1.12-.33-2.06-1.58-2.06Z"/><path class="cls-1" d="M56.66,179.87v1.43H53.88v3.9h2.49v1.43H53.88v4.22h2.78v1.43H52.23V179.87Z"/><path class="cls-1" d="M64.14,63.15c19.52-12.94,39.12-21.76,56.61-26.27V0H23V98.09A223.71,223.71,0,0,1,64.14,63.15"/><path class="cls-2" d="M65.84,66.14C49.43,77,34.9,87.49,23,99.84v27.61h97.78V38.92c-17,5.48-35.94,14.64-54.91,27.23"/><path class="cls-3" d="M75.48,56.09l-.3-27.84c0-.27.38-12.37,2.94-14.52a2.6,2.6,0,0,1,2.81-.54c4.08,2.15,4.72,10.22,6.26,17.07.89,4.44,1.53,11.42,1.53,11.42H90V13.06H88.71v5.11c0,1.61-.38,2.42-1,2.15-.89-.4-1.4-2-2.43-4.3a9.32,9.32,0,0,0-2.94-3.76c-1.15-.81-3.19-.67-4.6-.13-6,2.15-8.94,20.43-10.34,35.62-.4,4.72-.48,8.71-.44,13.61,2.85-1.83,5.7-3.6,8.54-5.26"/><path class="cls-3" d="M89.86,78.79,89.73,83c-.13,3.5-1.41,25.81-6.51,29.7-1.66,1.21-2.81.94-3.45.54-3.83-2.15-3.83-12.77-3.83-15.06l-.42-38.08Q71.27,62.63,67,65.42c0,.11,0,.21,0,.33.13,7.66.77,13.44,1.41,19.62,1,12,3.45,25.41,10.22,29a4.66,4.66,0,0,0,5-.14c6.9-4.7,7.53-32.52,7.4-35.48H89.86"/><path class="cls-3" d="M37.64,83.6C40,64.33,43.38,37.93,43.38,37.93L47,75.66c2.06-1.65,4.14-3.28,6.28-4.88L47,10.91l-1.53-.41-9.7,74.85c.64-.59,1.26-1.17,1.91-1.75"/><path class="cls-3" d="M35.21,103.25c.11-1.06.86-7.12,1.86-15.14-.64.56-1.29,1.12-1.92,1.68L33.8,100.16a60.76,60.76,0,0,1-1.28,7.53c-.64,1.74-1.28,4.16-5.49,4.43v1.34H40.57v-1.34c-2.56-.4-6.13-1.21-5.36-8.87"/><path class="cls-3" d="M53.72,74.69q-3.23,2.39-6.33,4.85l3.14,32.59H47.6v1.34H61.26v-1.34H57.68l-4-37.43"/><path class="cls-3" d="M109.69,43q-3.35,1.33-6.77,2.82v66.33h-5v1.34h16.73v-1.34h-5V43"/><path class="cls-3" d="M102.92,42.69c2.28-.9,4.53-1.71,6.77-2.48V14.41h5V13.06H97.94v1.34h5V42.69"/><path class="cls-3" d="M65.47,63.4C95,43.83,124.93,35.31,147.3,33.29c-22.42-.39-53.28,7-83.34,27S11.38,107.06,0,129.86C13.09,108.37,36,83,65.47,63.4"/><path class="cls-2" d="M66.06,66.2c29.51-19.57,58.87-30.9,81.24-32.91-22.42-.39-52.68,9.84-82.74,29.76S11.38,107.06,0,129.86c13.09-21.5,36.55-44.09,66.06-63.66"/><path class="cls-2" d="M14.69,137.79l3.4,15.8H16l-.59-3.08H12.24l-.59,3.08H9.59L13,137.79Zm0,8.8-.8-5.74h0l-1.26,8h2.51Z"/><path class="cls-2" d="M21.56,153.59h-2.1v-15.8h2.1Z"/><path class="cls-2" d="M24.11,137.79h2.51c1.53,0,3.92.08,3.92,4,0,1.49-.44,3.75-2.18,4.07l2.91,7.69H29.1l-2.85-7.73h0v7.73h-2.1Zm4.21,4.51c0-1.51-.19-2.77-1.78-2.72h-.34v5.22C27.78,144.9,28.33,143.89,28.33,142.3Z"/><path class="cls-2" d="M32.83,153.59v-15.8h2.51c1.8,0,4.11.17,4.11,4.23,0,3.21-1.26,4.69-4.53,4.57v7Zm2.1-14v5.24c1.8.13,2.31-.86,2.31-2.62,0-1.42-.42-2.62-2-2.62Z"/><path class="cls-2" d="M48.78,145.69c0,2.85,0,8.11-4.11,8.11s-4.11-5.26-4.11-8.11,0-8.11,4.11-8.11S48.78,142.84,48.78,145.69Zm-6,0c0,3.35.23,6.14,1.89,6.14s1.89-2.79,1.89-6.14-.23-6.14-1.89-6.14S42.78,142.34,42.78,145.69Z"/><path class="cls-2" d="M50.93,137.79h2.51c1.53,0,3.92.08,3.92,4,0,1.49-.44,3.75-2.18,4.07l2.91,7.69H55.92l-2.85-7.73h0v7.73h-2.1Zm4.21,4.51c0-1.51-.19-2.77-1.78-2.72H53v5.22C54.6,144.9,55.15,143.89,55.15,142.3Z"/><path class="cls-2" d="M64.87,137.79v1.82H62.5v14H60.4v-14H57.93v-1.82Z"/><path class="cls-2" d="M70.92,140.22a2.88,2.88,0,0,0-1.78-.67,1.9,1.9,0,0,0-1.86,2,2.56,2.56,0,0,0,.59,1.72L69.46,145c1.42,1.45,2.24,2.49,2.24,4.63S70.32,153.8,68,153.8a3.67,3.67,0,0,1-2.31-.75v-2.12a3.42,3.42,0,0,0,2.07.82c1.3,0,1.84-1,1.84-2.2,0-3.14-4.42-3.77-4.42-7.92,0-2.22,1.17-4,3.54-4a4.24,4.24,0,0,1,2.22.52Z"/><path class="cls-2" d="M83.89,139.95a3,3,0,0,0-1.34-.4c-2.93,0-3,4.28-3,6.24s.17,6,3,6a2.6,2.6,0,0,0,1.26-.31v1.84a3,3,0,0,1-1.68.44c-4.28,0-4.84-4.55-4.84-7.86s.4-8.36,4.69-8.36a3.25,3.25,0,0,1,1.82.46Z"/><path class="cls-2" d="M93.32,145.69c0,2.85,0,8.11-4.11,8.11s-4.11-5.26-4.11-8.11,0-8.11,4.11-8.11S93.32,142.84,93.32,145.69Zm-6,0c0,3.35.23,6.14,1.89,6.14s1.89-2.79,1.89-6.14-.23-6.14-1.89-6.14S87.33,142.34,87.33,145.69Z"/><path class="cls-2" d="M97.57,137.79v11.59c0,2,.61,2.45,1.47,2.45,1.45,0,1.57-.92,1.59-2.22V137.79h2.1V149c0,2.07,0,4.8-3.63,4.8-3.33,0-3.63-2.26-3.63-5.11v-10.9Z"/><path class="cls-2" d="M107,142.49l.31,5.3v5.8h-2.1v-15.8h2l3.69,12,0,0-.5-6.33v-5.64h2.1v15.8h-1.95L107,141.42l0,0Z"/><path class="cls-2" d="M121.27,139.95a3,3,0,0,0-1.34-.4c-2.93,0-3,4.28-3,6.24s.17,6,3,6a2.6,2.6,0,0,0,1.26-.31v1.84a3,3,0,0,1-1.68.44c-4.28,0-4.84-4.55-4.84-7.86s.4-8.36,4.69-8.36a3.25,3.25,0,0,1,1.82.46Z"/><path class="cls-2" d="M125,153.59h-2.1v-15.8H125Z"/><path class="cls-2" d="M129.63,137.79v14h3.52v1.82h-5.62v-15.8Z"/><path class="cls-2" d="M25.88,174.55h-2.1v-15.8h2.1Z"/><path class="cls-2" d="M30.21,163.44l.31,5.3v5.8h-2.1v-15.8h2l3.69,12,0,0-.5-6.33v-5.64h2.1v15.8H33.82l-3.69-12.18,0,0Z"/><path class="cls-2" d="M43.9,158.75v1.82H41.53v14h-2.1v-14H37v-1.82Z"/><path class="cls-2" d="M50.73,158.75v1.82H47.19v5h3.16v1.82H47.19v5.36h3.54v1.82H45.09v-15.8Z"/><path class="cls-2" d="M52.36,158.75h2.51c1.53,0,3.92.08,3.92,4,0,1.49-.44,3.75-2.18,4.07l2.91,7.69H57.35l-2.85-7.73h0v7.73h-2.1Zm4.21,4.51c0-1.51-.19-2.77-1.78-2.72h-.34v5.22C56,165.85,56.57,164.84,56.57,163.25Z"/><path class="cls-2" d="M62.86,163.44l.31,5.3v5.8h-2.1v-15.8h2l3.69,12,0,0-.5-6.33v-5.64h2.1v15.8H66.46l-3.69-12.18,0,0Z"/><path class="cls-2" d="M74.86,158.75l3.4,15.8H76.14l-.59-3.08H72.41l-.59,3.08H69.77l3.44-15.8Zm0,8.8L74,161.8h0l-1.26,8h2.51Z"/><path class="cls-2" d="M84.46,158.75v1.82H82.09v14H80v-14H77.52v-1.82Z"/><path class="cls-2" d="M87.75,174.55h-2.1v-15.8h2.1Z"/><path class="cls-2" d="M98.12,166.65c0,2.85,0,8.11-4.11,8.11s-4.11-5.26-4.11-8.11,0-8.11,4.11-8.11S98.12,163.8,98.12,166.65Zm-6,0c0,3.35.23,6.14,1.89,6.14s1.89-2.79,1.89-6.14-.23-6.14-1.89-6.14S92.13,163.29,92.13,166.65Z"/><path class="cls-2" d="M102.06,163.44l.31,5.3v5.8h-2.1v-15.8h2l3.69,12,0,0-.5-6.33v-5.64h2.1v15.8h-1.95L102,162.37l0,0Z"/><path class="cls-2" d="M114.07,158.75l3.4,15.8h-2.12l-.59-3.08h-3.14l-.59,3.08H109l3.44-15.8Zm0,8.8-.8-5.74h0l-1.26,8h2.51Z"/><path class="cls-2" d="M120.94,158.75v14h3.52v1.82h-5.62v-15.8Z"/><path class="cls-4" d="M77.9,181.8a2.39,2.39,0,0,0-1.33-.44A1.52,1.52,0,0,0,75.09,183a2.4,2.4,0,0,0,.44,1.33l1.18,1.33a4.22,4.22,0,0,1,1.77,3.55,2.88,2.88,0,0,1-2.81,3.1,2.35,2.35,0,0,1-1.77-.59v-1.63a2.05,2.05,0,0,0,1.48.74c1,0,1.48-.88,1.48-1.77,0-2.36-3.4-3-3.4-6.06,0-1.77.88-3.1,2.66-3.1a3.2,3.2,0,0,1,1.77.29v1.63"/><rect class="cls-1" x="111.72" y="179.99" width="1.63" height="12.17"/><rect class="cls-1" x="88.61" y="185.8" width="3.63" height="1.63"/><rect class="cls-1" x="79.51" y="179.99" width="1.63" height="12.17"/><rect class="cls-1" x="120.81" y="179.99" width="1.63" height="12.17"/><path class="cls-4" d="M110.6,181.62a3.82,3.82,0,0,0-1-.3c-2.37,0-2.37,3.26-2.37,4.9s.15,4.6,2.37,4.6a2.75,2.75,0,0,0,1-.29V192a2.2,2.2,0,0,1-1.33.3c-3.26,0-3.71-3.41-3.71-6.08,0-2.38.29-6.38,3.56-6.38a2.66,2.66,0,0,1,1.48.3v1.48"/><path class="cls-4" d="M129.15,181.62a3.8,3.8,0,0,0-1-.3c-2.37,0-2.37,3.26-2.37,4.9s.15,4.6,2.37,4.6a2.75,2.75,0,0,0,1-.29V192a2.19,2.19,0,0,1-1.34.3c-3.26,0-3.71-3.41-3.71-6.08,0-2.38.3-6.38,3.56-6.38a2.66,2.66,0,0,1,1.48.3v1.48"/><polyline class="cls-4" points="119.69 179.84 119.69 181.33 116.87 181.33 116.87 185.18 119.39 185.18 119.39 186.52 116.87 186.52 116.87 192.16 115.24 192.16 115.24 179.84 119.69 179.84"/><path class="cls-4" d="M96,185.18a1.89,1.89,0,0,1-.89.15v-4.15h.3a1.23,1.23,0,0,1,.59.15c.6.3.74,1,.74,2.08S96.6,184.88,96,185.18ZM98.53,183c0-2.67-1.49-3-2.52-3.11H93.48v12.32h1.63V187c3.43,0,3.41-2.86,3.41-4"/><path class="cls-4" d="M102.61,188.6h-2.08l1-6.23Zm-.29-8.61H101L98.3,192.16h1.63l.45-2.37h2.37l.44,2.37h1.63L102.31,180"/><path class="cls-4" d="M86.17,188.6H84.1l1-6.23ZM85.88,180H84.54l-2.67,12.17H83.5l.45-2.37h2.37l.45,2.37H88.4L85.88,180"/><path class="cls-4" d="M70.94,188.6H68.86l1-6.23ZM70.65,180H69.31l-2.67,12.17h1.63l.45-2.37h2.37l.45,2.37h1.63L70.65,180"/></g></g></svg>